<?xml version="1.0" encoding="UTF-8"?>
<svg width="270px" height="113px" viewBox="0 0 270 113" version="1.1" xmlns="http://www.w3.org/2000/svg" xmlns:xlink="http://www.w3.org/1999/xlink">
    <!-- Generator: Sketch 51.3 (57544) - http://www.bohemiancoding.com/sketch -->
    <title>logo</title>
    <desc>Created with Sketch.</desc>
    <defs>
        <polygon id="path-1" points="0.0743119266 0.0211882411 130.663899 0.0211882411 130.663899 112.5 0.0743119266 112.5"></polygon>
    </defs>
    <g id="Desktop" stroke="none" stroke-width="1" fill="none" fill-rule="evenodd">
        <g id="1.2-Intersaction_desktop" transform="translate(-585.000000, -130.000000)">
            <g id="section-home" transform="translate(346.000000, 130.000000)">
                <g id="logo" transform="translate(239.000000, 0.000000)">
                    <path d="M91.0977523,81.4009424 L93.2391743,81.4009424 L93.2391743,64.9734634 L91.0977523,64.9734634 L91.0977523,81.4009424 Z M90.5627064,58.4656497 C90.5627064,58.0152606 90.7175229,57.6364402 91.027156,57.3267206 C91.3355505,57.0194689 91.7157798,56.865226 92.1690826,56.865226 C92.6211468,56.865226 93.0013761,57.0194689 93.3110092,57.3267206 C93.6206422,57.6364402 93.7754587,58.0152606 93.7754587,58.4656497 C93.7754587,58.9160388 93.6206422,59.2960931 93.3110092,59.6033449 C93.0013761,59.9118305 92.6211468,60.0660734 92.1690826,60.0660734 C91.7157798,60.0660734 91.3355505,59.9118305 91.027156,59.6033449 C90.7175229,59.2960931 90.5627064,58.9160388 90.5627064,58.4656497 Z" id="Fill-1" fill="#4D4E4E"></path>
                    <path d="M99.3067431,69.5945788 C99.3067431,69.2873271 99.2943578,68.9134424 99.2708257,68.4753928 C99.246055,68.0361092 99.2287156,67.5918898 99.2175688,67.1415007 C99.2051835,66.6911117 99.187844,66.2703372 99.1643119,65.8791774 C99.1407798,65.4880175 99.1283945,65.1857016 99.1283945,64.9734634 L101.269817,64.9734634 C101.293349,65.5892008 101.310688,66.1814933 101.323073,66.7503409 C101.33422,67.3191885 101.363945,67.6869034 101.413486,67.8522517 L101.518761,67.8522517 C101.947294,66.9527075 102.660688,66.1765576 103.661422,65.5238019 C104.660917,64.8722801 105.825138,64.5465193 107.157798,64.5465193 C108.443394,64.5465193 109.489954,64.7476519 110.298716,65.1499172 C111.108716,65.5534165 111.744083,66.081544 112.208532,66.7330657 C112.671743,67.3845875 112.993761,68.1372925 113.17211,68.9911808 C113.350459,69.8438352 113.439633,70.7211685 113.439633,71.6219466 L113.439633,81.3997085 L111.298211,81.3997085 L111.298211,71.7280657 C111.298211,71.0654385 111.238761,70.4188525 111.119862,69.7907757 C111.000963,69.1626989 110.79289,68.600021 110.495642,68.1015082 C110.197156,67.6042292 109.781009,67.2068997 109.247202,66.9107535 C108.710917,66.6146072 108.016101,66.4665341 107.157798,66.4665341 C106.372569,66.4665341 105.62945,66.6022678 104.927202,66.8749691 C104.226193,67.1476705 103.619312,67.5635091 103.107798,68.1200173 C102.596284,68.6765254 102.191284,69.3761709 101.894037,70.2177199 C101.596789,71.0592688 101.448165,72.0488908 101.448165,73.186586 L101.448165,81.3997085 L99.3067431,81.3997085 L99.3067431,69.5945788" id="Fill-2" fill="#4D4E4E"></path>
                    <path d="M127.215826,66.8922443 L122.505688,66.8922443 L122.505688,77.5954632 C122.505688,78.330893 122.707569,78.8997406 123.11133,79.3032399 C123.51633,79.7055052 124.074908,79.9066378 124.789541,79.9066378 C125.194541,79.9066378 125.604495,79.8535783 126.020642,79.7474592 C126.436789,79.6401062 126.835596,79.5043725 127.215826,79.3377903 L127.394174,81.2578051 C126.990413,81.3997085 126.525963,81.5305064 126.003303,81.6489649 C125.479404,81.7674234 125.014954,81.8266527 124.611193,81.8266527 C123.849495,81.8266527 123.194312,81.7143639 122.648119,81.4885524 C122.100688,81.2639748 121.659771,80.9616588 121.327844,80.5828384 C120.99344,80.204018 120.750688,79.7597987 120.595872,79.2489464 C120.441055,78.7393281 120.363028,78.1889896 120.363028,77.5954632 L120.363028,66.8922443 L116.794817,66.8922443 L116.794817,64.9734634 L120.363028,64.9734634 L120.363028,60.2437611 L122.505688,60.2437611 L122.505688,64.9734634 L127.215826,64.9734634 L127.215826,66.8922443" id="Fill-3" fill="#4D4E4E"></path>
                    <path d="M143.954587,71.7996344 C143.954587,71.0654385 143.805963,70.3768985 143.508716,69.7377162 C143.211468,69.0972999 142.806468,68.534622 142.294954,68.0484486 C141.78344,67.5635091 141.17656,67.1772851 140.47555,66.8922443 C139.772064,66.6084375 139.030183,66.4665341 138.244954,66.4665341 C137.078257,66.4665341 136.108486,66.7034511 135.335642,67.1772851 C134.56156,67.6511191 133.949725,68.1965217 133.497661,68.8134931 C133.045596,69.4304644 132.724817,70.0276927 132.532844,70.6088797 C132.343349,71.1900667 132.247982,71.5873962 132.247982,71.7996344 L143.954587,71.7996344 Z M145.595642,78.3062142 C144.763349,79.5636018 143.734128,80.4643799 142.50922,81.0085487 C141.283073,81.5539513 139.933073,81.8266527 138.45922,81.8266527 C137.197156,81.8266527 136.055229,81.6131806 135.032202,81.1874704 C134.009174,80.7605262 133.128578,80.162064 132.390413,79.3908498 C131.653486,78.6208696 131.087477,77.7089859 130.696101,76.6539649 C130.303486,75.5989439 130.10656,74.4316341 130.10656,73.1508016 C130.10656,71.9180929 130.309679,70.7803977 130.71344,69.7377162 C131.11844,68.6938006 131.689404,67.7868528 132.427569,67.0168725 C133.163257,66.2468923 134.032706,65.6422604 135.032202,65.2042107 C136.031697,64.7649271 137.137706,64.5465193 138.351468,64.5465193 C139.612294,64.5465193 140.724495,64.7649271 141.688073,65.2042107 C142.651651,65.6422604 143.461651,66.2234474 144.115596,66.9453039 C144.769541,67.6696282 145.263716,68.492668 145.595642,69.4168911 C145.930046,70.3423481 146.096009,71.2789106 146.096009,72.2265786 L146.096009,73.7196492 L132.247982,73.7196492 C132.247982,74.1700383 132.337156,74.7450556 132.516743,75.4447011 C132.693853,76.1431126 133.020826,76.825483 133.497661,77.4893441 C133.973257,78.1519713 134.608624,78.7220529 135.407477,79.1958869 C136.203853,79.6697208 137.231835,79.9066378 138.493899,79.9066378 C139.588761,79.9066378 140.646468,79.6462759 141.669495,79.1243182 C142.693761,78.6035944 143.477752,77.8916094 144.026422,76.9908313 L145.595642,78.3062142 Z" id="Fill-4" fill="#4D4E4E"></path>
                    <path d="M150.87922,69.5945788 C150.87922,69.2873271 150.865596,68.9134424 150.843303,68.4753928 C150.818532,68.0361092 150.799954,67.5918898 150.790046,67.1415007 C150.777661,66.6911117 150.759083,66.2703372 150.736789,65.8791774 C150.712018,65.4880175 150.699633,65.1857016 150.699633,64.9734634 L152.841055,64.9734634 C152.864587,65.5892008 152.883165,66.1814933 152.89555,66.7503409 C152.906697,67.3191885 152.936422,67.6869034 152.983486,67.8522517 C153.532156,66.8811388 154.233165,66.0864797 155.088991,65.4707423 C155.947294,64.853771 156.992615,64.5465193 158.229908,64.5465193 C158.444174,64.5465193 158.652248,64.5637945 158.855367,64.5983449 C159.056009,64.6353631 159.265321,64.6760833 159.479587,64.724207 L159.229404,66.8219096 C158.944541,66.726896 158.670826,66.6800062 158.409495,66.6800062 C157.480596,66.6800062 156.679266,66.8280793 156.00055,67.1229916 C155.321835,67.4203718 154.763257,67.8300408 154.322339,68.3507646 C153.882661,68.8714884 153.555688,69.483524 153.341422,70.1819355 C153.127156,70.881581 153.019404,71.6342861 153.019404,72.4400506 L153.019404,81.3997085 L150.87922,81.3997085 L150.87922,69.5945788" id="Fill-5" fill="#4D4E4E"></path>
                    <path d="M162.798853,77.2043034 C163.249679,78.0816366 163.916009,78.7516675 164.796606,79.2131621 C165.677202,79.6758906 166.604862,79.9066378 167.580826,79.9066378 C168.03289,79.9066378 168.484954,79.8363031 168.937018,79.6931658 C169.389083,79.5512624 169.794083,79.3501297 170.15078,79.0897678 C170.508716,78.8281719 170.798532,78.5147505 171.026422,78.1470356 C171.250596,77.7793207 171.364541,77.3585462 171.364541,76.8847122 C171.364541,76.1258375 171.12055,75.5569899 170.632569,75.1781695 C170.145826,74.7993491 169.543899,74.5019689 168.830505,74.2884968 C168.11711,74.0750247 167.330642,73.8924012 166.474817,73.7381583 C165.617752,73.5839155 164.833761,73.3469985 164.119128,73.0261734 C163.405734,72.7065823 162.805046,72.261129 162.317064,71.6935153 C161.829083,71.1246677 161.585092,70.3189032 161.585092,69.2749876 C161.585092,68.4692231 161.751055,67.7695776 162.085459,67.1772851 C162.417385,66.5849926 162.85211,66.0926495 163.388394,65.7014896 C163.92344,65.3103298 164.524128,65.0203533 165.190459,64.8303261 C165.856789,64.6415329 166.534266,64.5465193 167.224128,64.5465193 C168.580321,64.5465193 169.751972,64.7945417 170.740321,65.2930546 C171.727431,65.7903335 172.494083,66.5726532 173.041514,67.6387796 L171.114358,68.7777087 C170.710596,68.018834 170.204037,67.4438167 169.597156,67.0526569 C168.991514,66.661497 168.198853,66.4665341 167.224128,66.4665341 C166.843899,66.4665341 166.443853,66.5257633 166.027706,66.6442218 C165.61156,66.7626803 165.237523,66.9280287 164.904358,67.1415007 C164.571193,67.3549728 164.291284,67.6276742 164.065872,67.9596047 C163.83922,68.2915353 163.726514,68.6703557 163.726514,69.0972999 C163.726514,69.8327297 163.970505,70.3768985 164.458486,70.7335079 C164.945229,71.0888834 165.547156,71.3677544 166.26055,71.5688871 C166.973945,71.7712537 167.760413,71.9415378 168.616239,72.0834412 C169.473303,72.2265786 170.257294,72.4573258 170.971927,72.776917 C171.68656,73.0977421 172.286009,73.5592367 172.775229,74.1638686 C173.260734,74.7697344 173.504725,75.6273246 173.504725,76.7415749 C173.504725,77.5954632 173.346193,78.3370627 173.024174,78.9651396 C172.702156,79.5932164 172.262477,80.1201099 171.702661,80.5470541 C171.144083,80.9739983 170.508716,81.2935894 169.794083,81.5070615 C169.07945,81.7192997 168.331376,81.8266527 167.546147,81.8266527 C166.118119,81.8266527 164.815183,81.5539513 163.637339,81.0085487 C162.460734,80.4643799 161.549174,79.622831 160.907615,78.4839019 L162.798853,77.2043034" id="Fill-6" fill="#4D4E4E"></path>
                    <path d="M186.496927,73.1508016 C185.59156,73.1508016 184.717156,73.2112648 183.873716,73.3284894 C183.029037,73.4469479 182.268578,73.6480805 181.589862,73.9331213 C180.911147,74.2169281 180.369908,74.5969825 179.964908,75.0708165 C179.559908,75.5458844 179.359266,76.1381769 179.359266,76.8489279 C179.359266,77.3462068 179.471972,77.7904261 179.697385,78.1828199 C179.924037,78.5739797 180.215092,78.8935709 180.573028,79.1428273 C180.929725,79.3908498 181.327294,79.580877 181.766972,79.710441 C182.20789,79.8424728 182.653761,79.9066378 183.105826,79.9066378 C184.247752,79.9066378 185.187798,79.7412895 185.925963,79.4093589 C186.664128,79.0774284 187.251193,78.6443145 187.693349,78.1112512 C188.133028,77.5769541 188.435229,76.9735561 188.602431,76.2973555 C188.769633,75.6223888 188.852615,74.9412525 188.852615,74.2539464 L188.852615,73.1508016 L186.496927,73.1508016 Z M190.779771,74.5019689 C190.779771,75.3077334 190.785963,76.0308239 190.79711,76.6712401 C190.809495,77.3104224 190.826835,77.9039489 190.850367,78.4493515 C190.875138,78.9947542 190.903624,79.5043725 190.94078,79.9782065 C190.975459,80.4532745 191.029954,80.9258745 191.101789,81.3997085 L189.10156,81.3997085 C188.959128,80.5951779 188.887294,79.7055052 188.887294,78.7331583 L188.816697,78.7331583 C188.197431,79.8005188 187.43078,80.5828384 186.514266,81.0801173 C185.597752,81.5786302 184.438486,81.8266527 183.035229,81.8266527 C182.321835,81.8266527 181.618349,81.7378088 180.929725,81.560121 C180.238624,81.3824333 179.620596,81.0973925 179.074404,80.7074667 C178.525734,80.3163068 178.079862,79.8128582 177.73555,79.1958869 C177.39,78.5789155 177.217844,77.8323802 177.217844,76.9562809 C177.217844,75.6988933 177.538624,74.7043355 178.181422,73.9689056 C178.822982,73.2347097 179.614404,72.6831374 180.55445,72.3154224 C181.494495,71.9477075 182.492752,71.7107905 183.552936,71.6034375 C184.610642,71.4973184 185.544495,71.4442589 186.354495,71.4442589 L188.852615,71.4442589 L188.852615,70.4484671 C188.852615,69.0257312 188.412936,68.0077285 187.532339,67.3907572 C186.651743,66.7750198 185.544495,66.4665341 184.213073,66.4665341 C182.30945,66.4665341 180.631239,67.0822715 179.180917,68.3149802 L177.931239,66.85646 C178.716468,66.0988192 179.692431,65.5238019 180.85789,65.132642 C182.023349,64.7414822 183.141743,64.5465193 184.213073,64.5465193 C186.210826,64.5465193 187.804817,65.0141835 188.995046,65.950746 C190.184037,66.8873085 190.779771,68.3988883 190.779771,70.4842515 L190.779771,74.5019689 Z" id="Fill-7" fill="#4D4E4E"></path>
                    <path d="M210.301514,78.9824148 C209.492752,79.9547616 208.577477,80.6716823 207.55445,81.1331769 C206.531422,81.5959054 205.424174,81.8266527 204.235183,81.8266527 C202.973119,81.8266527 201.807661,81.6131806 200.737569,81.1874704 C199.667477,80.7605262 198.749725,80.162064 197.989266,79.3908498 C197.227569,78.6208696 196.631835,77.7089859 196.204541,76.6539649 C195.776009,75.5989439 195.561743,74.4439736 195.561743,73.186586 C195.561743,71.9304323 195.776009,70.774228 196.204541,69.719207 C196.631835,68.66542 197.227569,67.7523024 197.989266,66.9823221 C198.749725,66.211108 199.667477,65.6126458 200.737569,65.1857016 C201.807661,64.7587574 202.973119,64.5465193 204.235183,64.5465193 C205.448945,64.5465193 206.572294,64.7945417 207.607706,65.2930546 C208.643119,65.7903335 209.564587,66.489979 210.373349,67.3907572 L208.660459,68.6703557 C208.041193,67.9830497 207.362477,67.4438167 206.626789,67.0526569 C205.888624,66.661497 205.091009,66.4665341 204.235183,66.4665341 C203.23445,66.4665341 202.33156,66.6442218 201.522798,66.9995973 C200.712798,67.3549728 200.024174,67.8349765 199.453211,68.4396084 C198.881009,69.0442404 198.446284,69.7549914 198.150275,70.5730954 C197.851789,71.3911994 197.704404,72.261129 197.704404,73.186586 C197.704404,74.110809 197.851789,74.9819726 198.150275,75.8000766 C198.446284,76.6181806 198.881009,77.3289316 199.453211,77.9335635 C200.024174,78.5381954 200.712798,79.0169652 201.522798,79.3735746 C202.33156,79.7289501 203.23445,79.9066378 204.235183,79.9066378 C205.139312,79.9066378 205.965413,79.6993355 206.714725,79.2847307 C207.464037,78.870126 208.113028,78.3197875 208.660459,77.6312475 L210.301514,78.9824148" id="Fill-8" fill="#4D4E4E"></path>
                    <path d="M221.722018,66.8922443 L217.010642,66.8922443 L217.010642,77.5954632 C217.010642,78.330893 217.213761,78.8997406 217.618761,79.3032399 C218.022523,79.7055052 218.582339,79.9066378 219.295734,79.9066378 C219.699495,79.9066378 220.10945,79.8535783 220.526835,79.7474592 C220.942982,79.6401062 221.341789,79.5043725 221.722018,79.3377903 L221.901606,81.2578051 C221.496606,81.3997085 221.032156,81.5305064 220.509495,81.6489649 C219.985596,81.7674234 219.521147,81.8266527 219.117385,81.8266527 C218.35445,81.8266527 217.701743,81.7143639 217.154312,81.4885524 C216.605642,81.2639748 216.167202,80.9616588 215.832798,80.5828384 C215.500872,80.204018 215.255642,79.7597987 215.100826,79.2489464 C214.946009,78.7393281 214.870459,78.1889896 214.870459,77.5954632 L214.870459,66.8922443 L211.301009,66.8922443 L211.301009,64.9734634 L214.870459,64.9734634 L214.870459,60.2437611 L217.010642,60.2437611 L217.010642,64.9734634 L221.722018,64.9734634 L221.722018,66.8922443" id="Fill-9" fill="#4D4E4E"></path>
                    <path d="M225.934266,81.4009424 L228.07445,81.4009424 L228.07445,64.9734634 L225.934266,64.9734634 L225.934266,81.4009424 Z M225.397982,58.4656497 C225.397982,58.0152606 225.552798,57.6364402 225.862431,57.3267206 C226.170826,57.0194689 226.552294,56.865226 227.004358,56.865226 C227.455183,56.865226 227.836651,57.0194689 228.146284,57.3267206 C228.455917,57.6364402 228.610734,58.0152606 228.610734,58.4656497 C228.610734,58.9160388 228.455917,59.2960931 228.146284,59.6033449 C227.836651,59.9118305 227.455183,60.0660734 227.004358,60.0660734 C226.552294,60.0660734 226.170826,59.9118305 225.862431,59.6033449 C225.552798,59.2960931 225.397982,58.9160388 225.397982,58.4656497 Z" id="Fill-10" fill="#4D4E4E"></path>
                    <path d="M235.35578,73.186586 C235.35578,74.110809 235.503165,74.9819726 235.800413,75.8000766 C236.098899,76.6181806 236.532385,77.3289316 237.103349,77.9335635 C237.67555,78.5381954 238.365413,79.0169652 239.174174,79.3735746 C239.982936,79.7289501 240.887064,79.9066378 241.88656,79.9066378 C242.886055,79.9066378 243.790183,79.7289501 244.598945,79.3735746 C245.407706,79.0169652 246.098807,78.5381954 246.669771,77.9335635 C247.240734,77.3289316 247.672982,76.6181806 247.971468,75.8000766 C248.268716,74.9819726 248.417339,74.110809 248.417339,73.186586 C248.417339,72.261129 248.268716,71.3911994 247.971468,70.5730954 C247.672982,69.7549914 247.240734,69.0442404 246.669771,68.4396084 C246.098807,67.8349765 245.407706,67.3549728 244.598945,66.9995973 C243.790183,66.6442218 242.886055,66.4665341 241.88656,66.4665341 C240.887064,66.4665341 239.982936,66.6442218 239.174174,66.9995973 C238.365413,67.3549728 237.67555,67.8349765 237.103349,68.4396084 C236.532385,69.0442404 236.098899,69.7549914 235.800413,70.5730954 C235.503165,71.3911994 235.35578,72.261129 235.35578,73.186586 Z M233.213119,73.186586 C233.213119,71.9304323 233.427385,70.774228 233.855917,69.719207 C234.28445,68.66542 234.878945,67.7523024 235.640642,66.9823221 C236.402339,66.211108 237.317615,65.6126458 238.388945,65.1857016 C239.459037,64.7587574 240.625734,64.5465193 241.88656,64.5465193 C243.147385,64.5465193 244.30789,64.7587574 245.366835,65.1857016 C246.424541,65.6126458 247.341055,66.211108 248.115138,66.9823221 C248.887982,67.7523024 249.48867,68.66542 249.917202,69.719207 C250.345734,70.774228 250.558761,71.9304323 250.558761,73.186586 C250.558761,74.4439736 250.345734,75.5989439 249.917202,76.6539649 C249.48867,77.7089859 248.887982,78.6208696 248.115138,79.3908498 C247.341055,80.162064 246.424541,80.7605262 245.366835,81.1874704 C244.30789,81.6131806 243.147385,81.8266527 241.88656,81.8266527 C240.625734,81.8266527 239.459037,81.6131806 238.388945,81.1874704 C237.317615,80.7605262 236.402339,80.162064 235.640642,79.3908498 C234.878945,78.6208696 234.28445,77.7089859 233.855917,76.6539649 C233.427385,75.5989439 233.213119,74.4439736 233.213119,73.186586 Z" id="Fill-11" fill="#4D4E4E"></path>
                    <path d="M255.341972,69.5945788 C255.341972,69.2873271 255.329587,68.9134424 255.304817,68.4753928 C255.282523,68.0361092 255.263945,67.5918898 255.25156,67.1415007 C255.240413,66.6911117 255.221835,66.2703372 255.198303,65.8791774 C255.174771,65.4880175 255.162385,65.1857016 255.162385,64.9734634 L257.305046,64.9734634 C257.327339,65.5892008 257.345917,66.1814933 257.358303,66.7503409 C257.36945,67.3191885 257.399174,67.6869034 257.447477,67.8522517 L257.553991,67.8522517 C257.983761,66.9527075 258.697156,66.1765576 259.695413,65.5238019 C260.694908,64.8722801 261.860367,64.5465193 263.194266,64.5465193 C264.478624,64.5465193 265.523945,64.7476519 266.333945,65.1499172 C267.142706,65.5534165 267.779312,66.081544 268.243761,66.7330657 C268.708211,67.3845875 269.027752,68.1372925 269.207339,68.9911808 C269.385688,69.8438352 269.474862,70.7211685 269.474862,71.6219466 L269.474862,81.3997085 L267.33344,81.3997085 L267.33344,71.7280657 C267.33344,71.0654385 267.272752,70.4188525 267.155092,69.7907757 C267.034954,69.1626989 266.826881,68.600021 266.530872,68.1015082 C266.233624,67.6042292 265.817477,67.2068997 265.281193,66.9107535 C264.744908,66.6146072 264.050092,66.4665341 263.194266,66.4665341 C262.407798,66.4665341 261.66344,66.6022678 260.962431,66.8749691 C260.260183,67.1476705 259.653303,67.5635091 259.143028,68.1200173 C258.630275,68.6765254 258.226514,69.3761709 257.929266,70.2177199 C257.63078,71.0592688 257.482156,72.0488908 257.482156,73.186586 L257.482156,81.3997085 L255.341972,81.3997085 L255.341972,69.5945788" id="Fill-12" fill="#4D4E4E"></path>
                    <path d="M65.3313303,47.4107572 C87.6670183,47.4107572 107.155321,35.314417 117.594908,17.3482115 C96.757844,17.3728903 76.4991743,28.1390403 65.3313303,47.4107572 Z M13.0677523,17.3482115 C23.5073394,35.314417 42.9956422,47.4107572 65.3313303,47.4107572 C54.1634862,28.1390403 33.906055,17.3728903 13.0677523,17.3482115 Z M65.3313303,47.4107572 C76.4991743,66.6824741 75.7288073,89.5449642 65.3313303,107.534615 C54.9338532,89.5449642 54.1634862,66.6824741 65.3313303,47.4107572 Z" id="Fill-13" fill="#AABFA7"></path>
                    <g id="Group-18">
                        <mask id="mask-2" fill="white">
                            <use xlink:href="#path-1"></use>
                        </mask>
                        <g id="Clip-15"></g>
                        <path d="M13.7960092,17.766518 C24.4572936,35.6093293 43.8068807,46.7394923 64.6055505,46.9924506 C53.9863761,29.1743182 34.6355505,18.0429212 13.7960092,17.766518 Z M116.866651,17.766518 C96.0271101,18.0429212 76.6775229,29.1743182 66.0583486,46.9924506 C86.8557798,46.7394923 106.206606,35.6093293 116.866651,17.766518 Z M65.3313303,48.2461364 C55.1530734,66.318461 55.1518349,88.5787871 65.3313303,106.698001 C75.5095872,88.5787871 75.5095872,66.318461 65.3313303,48.2461364 Z M65.3313303,108.36259 L64.972156,107.740683 C54.2873394,89.2525198 54.1684404,66.361649 64.6179358,47.824128 L64.6142202,47.824128 L64.6166972,47.8191922 C43.276789,47.5662339 23.4379817,36.0189983 12.708578,17.5555138 L12.3481651,16.9336067 L13.0677523,16.9348407 C34.4819725,16.9595195 54.4396789,28.3031546 65.3288532,46.5877174 L65.3313303,46.5840156 L65.3338073,46.5877174 C76.2242202,28.3031546 96.1806881,16.9595195 117.59367,16.9348407 L118.314495,16.9336067 L117.952844,17.5555138 C107.224679,36.0189983 87.3858716,47.5662339 66.0472018,47.8191922 L66.0496789,47.824128 L66.0447248,47.824128 C76.4942202,66.361649 76.3765596,89.2525198 65.6917431,107.740683 L65.3313303,108.36259 Z" id="Fill-14" fill="#4D4E4E" mask="url(#mask-2)"></path>
                        <polygon id="Fill-16" fill="#4D4E4E" mask="url(#mask-2)" points="0.0743119266 47.824128 130.663899 47.824128 130.663899 46.9973864 0.0743119266 46.9973864"></polygon>
                        <polygon id="Fill-17" fill="#4D4E4E" mask="url(#mask-2)" points="64.9176606 112.5 65.7462385 112.5 65.7462385 0.0211882411 64.9176606 0.0211882411"></polygon>
                    </g>
                </g>
            </g>
        </g>
    </g>
</svg>