<svg xmlns="http://www.w3.org/2000/svg" xmlns:xlink="http://www.w3.org/1999/xlink" width="497" height="229" viewBox="0 0 497 229"><defs><path id="a" d="M.123 228.964V.171h496.784v228.793z"/></defs><g fill="none" fill-rule="evenodd"><mask id="b" fill="#fff"><use xlink:href="#a"/></mask><path fill="#FFF" d="M466.397 40.188c15.184 2.338 30.51 15.763 30.51 36.973v74.811c0 21.207-15.326 34.634-30.508 36.975-3.03.558-20.183 3.917-41.832 8.156l-.603.12c-53.56 10.494-134.504 26.352-149.377 28.79-7.94 1.3-14.37 2.177-19.117 2.614-.907.096-3.611.337-7.126.337a68.84 68.84 0 0 1-7.093-.35l-3.025-.34a5.619 5.619 0 0 1-.49-.04c-4.2-.484-9.385-1.235-15.41-2.22-14.85-2.435-95.862-18.305-149.468-28.806l-.78-.154c-21.517-4.217-38.566-7.553-41.57-8.107C15.326 186.607 0 173.179 0 151.972V77.161c0-21.206 15.326-34.633 30.51-36.973 3.074-.565 21.285-4.135 42.332-8.255l.498-.099C126.802 21.362 207.593 5.535 222.322 3.121 230.255 1.826 236.685.945 241.441.51c.899-.095 3.597-.34 7.134-.34 2.378 0 4.698.112 6.9.331.057.007.115.01.174.017l1.708.183c4.503.472 10.301 1.289 17.226 2.42 14.778 2.423 95.791 18.294 149.397 28.795l.992.193c21.438 4.2 38.424 7.529 41.425 8.079zm-.635 6.49c-2.783-.505-20.415-3.961-42.615-8.31C369.57 27.87 288.612 12.007 273.953 9.603c-6.781-1.11-12.43-1.906-16.822-2.372l-.579-.176h-1.105a62.173 62.173 0 0 0-6.338-.313c-3.287 0-5.781.237-6.475.31-4.587.422-10.847 1.278-18.612 2.551-14.665 2.403-95.671 18.277-149.277 28.78-22.156 4.341-39.756 7.79-42.532 8.295-12.22 1.838-24.504 12.645-24.504 29.896v74.84c0 17.257 12.284 28.061 24.504 29.897 2.782.508 20.386 3.958 42.548 8.3 53.598 10.503 134.596 26.374 149.261 28.779 5.917.967 10.973 1.698 15.08 2.175l-.016.012 3.441.358c2.02.209 4.153.312 6.353.312 3.285 0 5.777-.237 6.466-.308 4.59-.421 10.85-1.28 18.61-2.55 14.656-2.404 95.608-18.265 149.175-28.762 22.208-4.35 39.844-7.806 42.63-8.316 12.219-1.836 24.503-12.64 24.503-29.896v-74.84c0-17.254-12.284-28.06-24.502-29.897z" mask="url(#b)"/><path fill="#FFF" d="M474.63 66.137H21.397c3.112-4.412 7.811-6.67 11.547-7.188 7.358-1.297 170.94-33.392 191.948-36.81 7.636-1.239 13.6-2.046 17.904-2.435 0 0 5.316-.604 11.06.059l.013.004c4.249.408 9.988 1.19 17.268 2.373 21.004 3.417 184.586 35.512 191.946 36.809 3.738.517 8.438 2.776 11.547 7.188zM208.702 31.901h-3.853v26.455h9.25v-3.98h-5.397V31.902zm15.413 0h-3.85v26.455h9.25v-3.973h-5.4v-7.885h3.58v-3.98h-3.58V35.88h5.4v-3.976h-5.4v-.002zm11.566 26.455h4.625V31.901h-4.625v26.455zm31.597-26.455h-3.848v26.455h9.25v-3.98h-5.402v-7.883h3.58v-3.976h-3.58V35.88h5.401v-3.973h-5.4V31.9zm20.046.01v15.725l-4.62-15.726v-.01h-3.858v26.455h3.858V43l4.46 15.357h4.015V31.912h-3.855zm-33.768 5.242v15.984h-.004c-.056.656-.634 1.17-1.34 1.17h-2.017V35.948h2.018c.705 0 1.283.513 1.34 1.167h.003v.037zm-1.232-5.25v-.002h-5.852v26.455h5.949v-.004c2.673-.062 4.827-2.138 4.842-4.694V36.522c-.058-2.553-2.245-4.608-4.94-4.619zM21.397 162.425H474.63c-3.11 4.411-7.809 6.668-11.547 7.188-7.36 1.297-170.942 33.392-191.945 36.809-7.638 1.24-13.602 2.049-17.902 2.436 0 0-5.317.604-11.06-.059-.007 0-.01 0-.017-.004-4.25-.406-9.99-1.19-17.266-2.373-21.007-3.417-184.589-35.512-191.947-36.809-3.738-.52-8.437-2.777-11.549-7.188zm180.368 14.005h-7.708v14.006h7.687v-2.795h-4.747v-2.998h4.651v-2.717h-4.65v-2.776h4.767v-2.72zm60.123 8.563c0-7.308-5.864-13.231-13.101-13.231-7.238 0-13.106 5.923-13.106 13.231 0 7.302 5.868 13.223 13.106 13.223 7.237 0 13.101-5.92 13.101-13.223zm-51.398-4.258l1.892-2.31c-.21-.252-.81-1.009-1.697-1.469-.928-.464-1.933-.526-2.24-.526-.676 0-2.57.103-3.765 1.972a4.523 4.523 0 0 0-.697 2.436c0 1.848 1.025 2.9 1.507 3.32.6.504 1.276.902 1.97 1.278.521.255 1.408.653 1.776 1.264.155.253.232.52.232.841 0 1.007-.773 1.722-1.662 1.722-1.12 0-1.892-.95-2.529-1.722l-1.97 2.35c.232.253 1.101 1.239 2.183 1.682.928.376 2.01.419 2.298.419.368 0 1.487-.043 2.49-.631.483-.274.831-.629.965-.777.482-.48 1.314-1.533 1.314-3.379 0-1.769-.793-2.671-1.314-3.152-.54-.482-.926-.734-2.22-1.343-.657-.338-1.929-.862-1.95-2.015 0-.84.676-1.367 1.41-1.367 1.14 0 1.852 1.174 2.007 1.407zm12.858-4.305h-9.25v2.74h3.07v11.266h3.11v-11.309h3.07v-2.697zm0 14.007c0 .578.305.94.45 1.101.284.29.68.454 1.093.454.844 0 1.54-.69 1.54-1.555a1.55 1.55 0 0 0-1.54-1.558c-.825 0-1.543.69-1.543 1.558zm55.498-2.584h-2.449c-.602 0-1.224.02-1.829.058.302-.349.586-.68.885-1.047.342-.43.68-.859 1.017-1.302 1.66-2.214 2.188-3.344 2.207-4.82 0-1.825-1.038-2.895-1.526-3.324-1.132-.95-2.47-.988-2.941-.988-.605 0-1.035.095-1.263.139-1.733.386-2.449 1.51-2.767 2.153-.492 1.01-.567 1.885-.584 2.993h2.75c0-.819 0-1.846.772-2.392.282-.192.66-.27.997-.27.983 0 1.735.642 1.735 1.709 0 .722-.322 1.596-1.188 2.855-.341.469-.696.912-1.034 1.381l-3.658 4.684v.754h8.876v-2.583zm7.388-8.068c-.81.656-1.245 2.224-1.245 4.542 0 2.028.332 3.338.915 4.037.517.628 1.12.67 1.457.67.37 0 1.059-.062 1.598-.907.621-.974.75-2.742.75-3.886 0-2.888-.728-4.875-2.374-4.854-.228 0-.667.02-1.1.398zm3.515-2.742c1.267.74 2.474 2.323 2.872 5.531.061.572.1 1.164.1 1.753 0 .465-.064 2.809-.89 4.58a5.32 5.32 0 0 1-.92 1.418c-.185.234-.643.76-1.367 1.142a5.118 5.118 0 0 1-1.084.379c-.208.04-.686.146-1.25.146-1.827 0-3.284-.949-4.176-2.553-1.105-1.987-1.105-4.52-1.105-5.133 0-3.57.98-5.49 2.08-6.549.542-.503 1.581-1.305 3.352-1.327.37 0 1.41.022 2.388.613zm10.68-.613v14.006h-3.322V179.15h-2.845v-2.72h6.166zm7.52 8.63h3.305c0-1.03 0-2.043.021-3.074.021-.477.042-.972.103-1.448a7.24 7.24 0 0 1 .144-.912c-.247.473-.514.952-.803 1.409-.29.474-.6.931-.911 1.406l-1.86 2.618zm6.078-.04h1.817v2.543h-1.817v2.873h-2.813v-2.873h-6.16v-2.68l6.282-8.453h2.691v8.59z"/><path fill="#FFF" d="M245.096 188.171l-.273-1.046h-.981v-.512h-2.471v-8.272h-.72v-.355h-.667v.355h-.724v10.344h4.582v-.514h1.254m5.189-9.178l.266-1.007h-.75l-.268 1.007h-.73l-1.629 6.351h-.027l-1.761-6.977h-.595l-.113-.381h-1.116l.111.381h-.522l2.961 10.318h2.036l2.784-9.692h-.647m6.148 6.31a2.293 2.293 0 0 1-.226.7 1.34 1.34 0 0 1-.432.494c-.185.122-.424.184-.718.184-.255 0-.496-.058-.722-.176a1.582 1.582 0 0 1-.583-.575c-.16-.263-.288-.604-.382-1.026-.091-.43-.136-.951-.136-1.57 0-.61.045-1.129.136-1.557.094-.432.222-.777.382-1.036.006-.01.01-.012.012-.023h-.803c.32-.64.79-1.075 1.41-1.276v.708a1.52 1.52 0 0 1 .686-.164c.215 0 .41.035.584.091a.99.99 0 0 1 .447.352c.13.174.228.407.303.703.072.292.117.656.136 1.098l2.185-1.232a7.328 7.328 0 0 0-.11-.418 3.69 3.69 0 0 0-.746-1.357 3.422 3.422 0 0 0-1.246-.908c-.492-.221-1.071-.329-1.727-.329-.177 0-.345.009-.512.027v.606c-1.071.248-1.853.974-2.29 2.1h-.787a3.406 3.406 0 0 0-.081.266c-.188.67-.281 1.452-.281 2.35 0 .905.093 1.693.28 2.361.186.666.45 1.223.795 1.663.345.445.76.778 1.246.997a3.892 3.892 0 0 0 1.63.329c.636 0 1.199-.108 1.695-.32a3.501 3.501 0 0 0 1.235-.894 3.95 3.95 0 0 0 .76-1.332c.046-.14.084-.283.122-.43l-2.168-1.193c-.02.268-.049.531-.094.787M107.959 86.738V74.899h-17.03v-.009H78.781v78.781h29.178v-11.843h-17.03v-23.475h11.289v-11.844H90.929V86.738h17.03m333.112 55.09V74.89h-12.153v78.781h29.178v-11.843h-17.025M422.11 86.726V74.89h-29.178v78.781h29.178v-11.837h-17.028V118.33h11.287v-11.84h-11.287V86.726h17.028m-165.343 27.421v-7.161h-16.534v47.658h16.534v-7.163h-9.65v-14.219h6.397v-7.163h-6.397v-11.952h9.65m41.938-39.222v46.825l-13.852-46.841v-.019h-11.552v78.781h11.552v-45.726l13.375 45.726h12.032V74.925h-11.555m37.788 56.673v8.048c0 2.118-1.948 3.834-4.351 3.834-2.399 0-4.347-1.716-4.347-3.834V90.855c0-2.112 1.948-3.832 4.347-3.832 2.403 0 4.35 1.72 4.35 3.832v40.743zm-4.351-56.708c-8.86 0-16.046 6.333-16.046 14.146v52.431c0 7.81 7.185 14.15 16.046 14.15 8.868 0 16.05-6.34 16.05-14.15V89.036c0-7.813-7.182-14.146-16.05-14.146zm38.892 66.73h-3.976v-23.834h3.972c2.405.004 4.35 1.705 4.35 3.806v16.438c-.136 1.999-2.022 3.59-4.346 3.59zm-3.976-46.032v-8.644h3.976c2.324 0 4.21 1.587 4.346 3.587v12.708c0 2.105-1.95 3.813-4.35 3.813h-3.972V95.588zm4.041-20.69h-4.04v-.008H355v78.781h16.412v-.014c8.7-.178 15.684-6.393 15.684-14.036v-17.834h-.034c-.269-3.936-2.392-7.43-5.608-9.837 3.216-2.402 5.34-5.9 5.608-9.836h.034V88.943c0-7.738-7.155-14.014-15.997-14.044zm-241.27 66.719h-3.97v-8.642h-.003v-15.188h3.97c2.402.004 4.348 1.705 4.348 3.806v16.439c-.13 1.998-2.023 3.585-4.344 3.585zm-3.97-46.03v-8.644h3.97c2.322 0 4.215 1.584 4.345 3.587v12.71c0 2.105-1.948 3.808-4.35 3.808h-3.968V95.586h.004zm4.036-20.688v-.002h-4.04v-.007h-12.06v78.781h16.417v-.014c8.696-.176 15.678-6.393 15.678-14.037v-17.834h-.029c-.267-3.936-2.39-7.43-5.613-9.835 3.223-2.406 5.346-5.899 5.613-9.836h.03V88.943c0-7.742-7.152-14.016-15.996-14.044zm34.417 20.687h.006v-8.643h3.823c2.234 0 4.06 1.588 4.184 3.587v16.443c0 2.105-1.876 3.806-4.192 3.806h-3.821V95.586zm20.483 58.085l-8.59-31.106c4.19-2.33 7.068-6.408 7.375-11.124h.028V88.943c0-7.74-6.887-14.016-15.406-14.044h-3.89v-.009h-11.613v78.781h11.613v-30.426h.016l8.403 30.426h12.064zM71.973 107.942V89.036c0-7.811-7.18-14.146-16.047-14.146-8.868 0-16.05 6.335-16.05 14.146v52.433c0 7.813 7.182 14.147 16.05 14.147 8.867 0 16.047-6.334 16.047-14.147v-26.247H55.926v12.252h4.349v12.174c0 2.116-1.946 3.832-4.35 3.832-2.402 0-4.348-1.716-4.348-3.832v-48.79c0-2.118 1.946-3.833 4.349-3.833 2.403 0 4.349 1.715 4.349 3.834v17.083h11.698m157.622 9.321v27.922c-.074 1.205-1.162 2.166-2.5 2.166h-2.288v-5.227h-.002v-22.617h.002v-5.226h2.289c1.337 0 2.425.959 2.5 2.168v.814zm-2.465-10.268v-.005h-2.325v-.004h-6.942v47.658h9.45v-.008c5.008-.106 9.03-3.865 9.03-8.492v-30.656c0-4.682-4.12-8.479-9.213-8.493zm-22.883 42.3a6.323 6.323 0 1 1-12.646-.004 6.323 6.323 0 0 1 12.646.005"/></g></svg>