<svg width="373" height="84" viewBox="0 0 373 84" xmlns="http://www.w3.org/2000/svg"><title>schets_laag_1</title><defs><linearGradient x1="49.429%" y1="146.664%" x2="50.24%" y2="5.495%" id="a"><stop stop-color="#6C3617" offset="0%"/><stop stop-color="#834B1A" offset="10.67%"/><stop stop-color="#4B2C1D" offset="25.28%"/><stop stop-color="#915D22" offset="38.76%"/><stop stop-color="#5C290D" offset="56.74%"/><stop stop-color="#5D2A10" offset="67.98%"/><stop stop-color="#4F2E1E" offset="78.09%"/><stop stop-color="#81421C" offset="87.64%"/><stop stop-color="#4B2C1D" offset="100%"/></linearGradient><linearGradient x1="-.002%" y1="49.919%" x2="99.994%" y2="49.919%" id="b"><stop stop-color="#FFEBA8" offset="0%"/><stop stop-color="#FFCB00" offset="50%"/><stop stop-color="#F7AF00" offset="100%"/></linearGradient></defs><g fill="none" fill-rule="evenodd"><path d="M370.048 34.65c-1.207-1.969-4.092-5.25-10.532-5.25-1.476 0-2.885.197-4.227.59h-.134c-.335.066-.604.198-.872.329a11.041 11.041 0 0 0-3.824-.656c-2.28 0-4.495.393-6.574 1.115-.873.328-1.61.656-2.214.985-.269-.197-.604-.329-.872-.46-1.208-.59-2.617-1.05-4.227-1.444a26.895 26.895 0 0 0-11.74.262c-2.013.526-3.623 1.117-4.964 1.773-1.678-1.378-4.294-2.625-8.118-2.625-2.08 0-4.025.394-5.903 1.181-1.543-.787-3.288-1.181-5.166-1.181-1.744 0-3.22.197-4.562.59h-.134l-.067.066c-.201.066-.403.131-.604.262-1.073-.393-2.348-.59-3.757-.59-2.28 0-4.495.394-6.574 1.115h-.067l.067-21.984a8.41 8.41 0 0 0-2.415-5.906c-1.812-1.772-4.294-2.69-7.447-2.69-.94 0-1.945.065-3.019.196-3.153.46-6.239 1.444-8.99 2.888-.737.393-2.213 1.18-3.555 2.428-1.409-1.313-3.69-2.494-7.178-2.494-.805 0-1.677.066-2.55.197-3.42.46-6.641 1.444-9.459 2.953-.872.46-2.616 1.378-4.159 2.953-1.073-.722-2.348-1.247-3.757-1.64a41.976 41.976 0 0 0-3.421-.788c-1.007-.197-2.08-.263-3.287-.263-.537 0-1.141 0-1.812.066-1.811.131-3.153.197-4.293.328-1.14.131-3.623.46-7.313.985-4.16.59-7.513 1.247-10.264 2.165-1.543.46-2.818 1.05-3.824 1.707a7.131 7.131 0 0 0-3.287-.788c-.336 0-.671 0-1.006.066l-22.34 3.084c-3.019.394-5.233 1.05-6.91 2.034a7.562 7.562 0 0 0-2.885-.59c-.335 0-.67 0-1.006.065l-30.122 4.135c-2.147.328-4.897 1.575-6.507 5.578-2.75-1.64-5.703-2.69-8.789-3.019a28.222 28.222 0 0 0-3.42-.197c-1.812 0-3.758.131-5.905.46-7.11.984-13.081 3.872-17.643 8.53-2.482 2.495-4.428 5.645-5.703 9.45-1.274 3.545-1.878 7.548-1.878 11.879 0 .853 0 1.706.067 2.494a4.042 4.042 0 0 1-.94.131l.068-18.244c0-1.706-.537-3.347-1.543-4.79l-.067-.066-.067-.066c-1.275-1.64-3.69-3.609-8.185-3.609-.805 0-1.677.066-2.549.197-3.421.46-6.642 1.444-9.46 2.953a17.46 17.46 0 0 0-3.22 2.1c-.402-.394-.871-.722-1.341-1.05-2.683-1.837-6.105-2.69-10.533-2.69-2.415 0-4.561.196-6.44.656-.47.13-.872.197-1.275.328-.067-1.444-.536-2.888-1.408-4.069l-.067-.066-.067-.065C32.067 24.28 29.25 23.1 25.426 23.1c-2.348 0-4.562.394-6.642 1.116-3.958 1.443-5.434 3.74-5.97 5.578-3.757.328-6.977 2.1-9.191 5.184C1.61 37.8.603 41.41.603 46.068c0 1.838.068 3.479.27 4.988.133 1.247.402 2.363.737 3.413.336.984.738 1.968 1.342 2.887.805 1.378 1.811 2.56 2.952 3.413 1.073.787 2.348 1.444 3.756 1.968a14.74 14.74 0 0 0 4.562.722c1.677 0 3.153-.262 4.495-.722.134.066.268.066.336.066.939.197 1.945.328 3.89.328 1.476 0 3.02-.065 4.63-.262 2.146-.263 3.69-.788 4.83-1.575 1.274.656 2.75 1.181 4.494 1.575 1.745.394 3.69.59 6.038.59 2.348 0 4.763-.328 7.178-.918.47-.132.873-.263 1.275-.394v14.24c0 3.544 2.415 6.432 6.105 7.22h.134c.604.13 1.342.196 2.08.196 1.006 0 2.28-.131 3.824-.328l20.394-2.822c2.952-.394 5.031-2.297 6.172-5.512a19.88 19.88 0 0 0 8.05 2.953c1.208.197 2.482.262 3.891.262a37.96 37.96 0 0 0 5.837-.46c7.648-1.05 13.82-4.265 18.381-9.45 2.55-2.952 4.428-6.562 5.569-10.827v7.743c0 3.479 2.415 6.366 5.97 7.22h.134c.604.13 1.342.196 2.08.196 1.14 0 2.55-.131 4.495-.394 2.55-.328 5.099-.853 7.58-1.443 2.416-.591 7.917-1.97 8.252-7.154.805 2.232 2.617 4.004 5.166 4.726.872.262 1.878.393 3.019.393.94 0 2.08-.065 3.488-.262l23.548-3.216c1.006-.131 2.348-.525 3.69-1.64.066 0 .2.065.268.065.872.263 1.744.394 2.884.394s2.483-.131 4.227-.328a50.986 50.986 0 0 0 7.648-1.575c1.006-.263 2.683-.722 4.293-1.706a8.095 8.095 0 0 0 2.818.721c.402.066.872.066 1.342.066 1.14 0 2.683-.131 4.629-.394 2.884-.393 7.446-1.05 11.069-2.822.402.197.872.328 1.342.394h.134a9.494 9.494 0 0 0 2.012.197c1.14 0 2.55-.131 4.562-.394 2.214-.328 4.428-.722 6.575-1.247.872 2.035 2.146 3.413 3.287 4.266l.134.066.134.065c1.342.919 2.952 1.51 4.898 1.838h.134c.939.131 1.878.197 2.75.197.403 0 .805 0 1.208-.066.939-.066 2.214-.197 4.36-.525 2.483-.328 4.83-1.05 6.843-2.1 1.14-.59 2.214-1.313 3.086-2.166.872 1.51 2.348 2.625 4.227 3.216 1.14.328 2.482.46 4.763.46 1.677 0 3.354-.066 4.964-.263.604-.066 1.14-.131 1.677-.263.067 0 .134.066.202.066 1.14.328 2.482.46 4.763.46 1.677 0 3.354-.066 4.964-.263.604-.066 1.14-.131 1.61-.263.067 0 .134.066.201.066 1.14.328 2.483.46 4.696.46 1.678 0 3.355-.066 4.965-.263 1.476-.197 2.683-.46 3.622-.919 2.013.984 4.361 1.51 6.977 1.51 1.61 0 3.086-.263 4.428-.722.201.065.47.13.671.13.805.132 1.878.198 3.69.198 1.543 0 3.086-.066 4.562-.263a17.11 17.11 0 0 0 1.945-.328c.134.066.336.131.47.131 1.14.328 2.482.46 4.696.46 1.677 0 3.354-.066 4.964-.263a13.8 13.8 0 0 0 1.879-.328c.134.066.2.066.335.131 1.14.328 2.482.46 4.763.46 1.677 0 3.354-.066 4.965-.263 7.044-.787 7.782-5.119 7.782-6.956V44.297c-.403-3.938-1.14-7.153-2.617-9.647z" fill="url(#a)"/><path d="M83.522 61.622c-2.28.328-5.702.919-10.264 1.837l.067-25.987a1.76 1.76 0 0 0-.402-1.116c-.738-.984-2.281-1.247-4.696-.919-2.684.394-5.099 1.116-7.246 2.232-2.146 1.115-3.22 2.1-3.22 3.019l-.067 36.553c0 .525.336.853.94.984.603.131 1.878.066 3.69-.197l20.393-2.822c.537-.065 1.007-1.05 1.342-3.019.336-1.903.537-4.2.537-6.825.134-2.624-.268-3.871-1.074-3.74zm78.022-38.981l-30.122 4.134c-.738.131-1.342 1.05-1.811 2.888-.47 1.771-.671 3.806-.671 5.971 0 2.166.134 3.807.47 4.857.268 1.05.67 1.575 1.073 1.509l7.715-1.05-.067 25.266c0 .525.268.853.939.984.604.131 2.08.066 4.36-.263 2.282-.328 4.562-.721 6.843-1.312 2.281-.59 3.422-1.05 3.422-1.51l.067-25.265 6.977-.984c.67-.066 1.274-1.116 1.677-3.02.403-1.902.604-3.871.604-5.971s-.067-3.675-.269-4.725c-.268-1.116-.603-1.575-1.207-1.51zM120.688 31.5c-1.945-1.181-3.958-1.903-6.105-2.166-2.146-.262-4.696-.197-7.647.197-5.703.788-10.265 2.953-13.887 6.628-1.812 1.838-3.22 4.2-4.294 7.088-1.006 2.887-1.543 6.169-1.543 9.844 0 8.793 1.812 14.437 5.568 16.997 1.812 1.312 3.891 2.1 6.105 2.428 2.214.328 4.83.262 7.916-.197 6.038-.853 10.801-3.282 14.357-7.285 3.555-4.068 5.3-9.843 5.3-17.325.067-8.4-1.879-13.78-5.77-16.209zM109.82 58.275c-.268 1.903-.67 3.15-1.14 3.806-.47.656-1.074.985-1.811 1.116-.806.131-1.41-.066-1.812-.59-.47-.526-.805-1.641-1.14-3.479-.269-1.837-.47-4.397-.403-7.744 0-3.346.134-5.906.47-7.743.268-1.838.67-3.085 1.14-3.675.47-.591 1.074-.985 1.812-1.05.805-.132 1.408.065 1.81.59.47.46.806 1.64 1.074 3.347.269 1.772.47 4.331.403 7.613 0 3.28-.134 5.906-.403 7.809zm140.747-47.906c-2.683.393-5.098 1.115-7.245 2.231-2.147 1.116-3.22 2.1-3.22 3.019l-.067 36.553c0 .525.335.853.94.984.603.132 2.079 0 4.36-.262 2.28-.328 4.562-.722 6.843-1.313 2.28-.59 3.42-1.05 3.42-1.51l.068-37.602c0-.394-.134-.788-.403-1.116-.805-1.05-2.348-1.312-4.696-.984zM195.154 47.25c-2.415.328-6.91 1.181-13.35 2.625v-3.74l10.063-1.116c.67-.066 1.207-.788 1.61-2.166.402-1.312.604-3.215.604-5.71 0-2.493-.47-3.609-1.476-3.477-1.677.197-5.233.853-10.734 1.837v-3.937c5.702-.263 9.795-.591 12.21-.92.536-.065 1.006-.852 1.341-2.362.336-1.509.537-3.543.537-6.3 0-2.69-.402-4.003-1.14-3.937l-22.34 3.084c-2.281.328-3.824.722-4.696 1.313-.872.525-1.342 1.312-1.342 2.362l-.067 37.144c0 .59.336.984.94 1.181.603.197 1.878.132 3.69-.065l23.546-3.216c.537-.066 1.007-.853 1.342-2.297.336-1.444.537-3.544.537-6.3-.134-2.822-.47-4.134-1.275-4.003zm77.753-39.9c-2.415.328-4.696 1.05-6.843 2.231-2.146 1.116-3.22 2.166-3.22 3.019l-.067 30.581c0 2.1-.335 3.347-1.073 3.806-.269.197-.604.329-1.14.394-1.544.197-2.349 1.903-2.349 5.119 0 2.231.604 3.806 1.745 4.66.536.328 1.207.59 2.146.721.94.132 1.745.132 2.617.132.805-.066 2.08-.197 3.89-.46 1.745-.262 3.355-.722 4.697-1.444 1.409-.721 2.482-1.772 3.153-3.215a13.589 13.589 0 0 0 1.409-4.594c.2-1.64.335-3.806.335-6.497l.067-32.484c.134-1.838-1.677-2.494-5.367-1.969zm-38.105 25.66c1.006-2.297 1.476-4.988 1.476-8.072 0-3.085-.47-5.447-1.476-6.957a11.9 11.9 0 0 0-1.744-2.165c-.604-.591-1.409-1.05-2.482-1.313-1.074-.262-2.013-.525-2.885-.656-.872-.131-2.08-.197-3.556-.131-1.475.065-2.75.197-3.89.328-1.074.131-3.49.46-7.179.984-3.69.525-6.776 1.116-9.19 1.903-2.416.788-3.623 1.64-3.623 2.69l-.067 37.735c0 .59.335.985.939 1.181.67.197 2.147.132 4.36-.196a63.16 63.16 0 0 0 6.843-1.379c2.281-.656 3.422-1.18 3.422-1.706v-12.01l.939-.065 3.623 11.616c.2.656.737.984 1.542 1.05.806.066 2.281 0 4.361-.328 7.313-.985 10.935-2.494 10.935-4.397s-2.147-6.103-6.373-12.6c1.744-1.444 3.019-3.216 4.025-5.513zm-17.51.852l-1.475.197V23.822l1.811-.263c.738-.13 1.409.197 2.013.854.603.656.872 1.903.872 3.674 0 3.61-1.074 5.513-3.22 5.775zM51.926 42.92c0-4.135-3.02-6.169-9.057-6.169-1.878 0-3.555.131-4.897.46-1.409.328-2.617.918-3.757 1.706-2.28 1.64-3.421 4.528-3.421 8.793 0 1.116.134 2.166.335 3.216.134.722.403 1.313.67 1.903.27.59.739 1.181 1.343 1.838a7.575 7.575 0 0 0 2.012 1.575c.805.459 1.812.787 3.02 1.05 1.207.262 2.75.393 4.561.393s3.69-.262 5.635-.721c1.946-.46 2.885-1.182 2.885-2.1 0-.657-.403-1.641-1.14-2.954-.738-1.312-1.342-1.968-1.812-1.968-.067 0-.805.262-2.214.853-1.409.59-2.482.853-3.354.853-1.476 0-2.214-.788-2.214-2.297h1.208c6.843.131 10.197-2.034 10.197-6.431zM40.52 46.725v-2.297c0-1.706.403-2.56 1.275-2.56.738 0 1.14.723 1.14 2.1 0 .788-.201 1.444-.67 1.97a2.28 2.28 0 0 1-1.745.787zM25.292 30.056c-1.543 0-3.02.263-4.361.722-1.342.46-2.013.985-2.013 1.51v4.396l.403 2.428h-.268a3.512 3.512 0 0 0-.47-.853c-1.006-.984-2.55-1.509-4.763-1.509-2.147 0-3.824.853-5.032 2.56-1.207 1.706-1.811 4.2-1.811 7.415 0 1.575.067 3.019.201 4.266.067.853.269 1.575.403 2.1.201.59.47 1.18.805 1.837.335.656.805 1.116 1.274 1.51.47.393 1.14.721 1.879.918.738.263 1.61.394 2.482.394 1.677 0 2.885-.394 3.69-1.116.67-.59 1.073-1.246 1.274-2.1h.269l.268 1.97c0 .196.067.393.134.459.067.065.269.196.671.262.336.066 1.14.131 2.348.131s2.482-.065 3.824-.197c1.342-.13 2.013-.328 2.013-.59V31.63c0-.262-.067-.46-.269-.722-.335-.525-1.341-.853-2.951-.853zM18.918 51.91c-.2.46-.47.722-.872.722-.47 0-.805-.394-1.073-1.181-.201-.788-.336-2.166-.336-4.134 0-3.675.403-5.447 1.208-5.447.201 0 .402.065.67.197.27.13.403.328.403.525v9.318zM311.75 36.225c-1.476 0-2.885.328-4.092 1.05-1.275.722-2.013 1.378-2.348 2.1-.94-2.1-2.482-3.15-4.562-3.15-1.073 0-1.945.131-2.55.328-1.61.59-2.75 1.51-3.42 2.822h-.269l-.335-1.575c-.202-.853-1.074-1.313-2.55-1.313-1.476 0-2.952.263-4.36.722-1.41.46-2.08.985-2.08 1.444v17.325c0 .328.201.525.604.656.402.132 1.341.197 2.817.197 1.476 0 2.885-.065 4.227-.197 1.342-.13 2.012-.328 2.012-.59V42.263c0-.657.202-.92.671-.92.269 0 .47.132.671.329.336.525.47 2.1.47 4.66v9.712c0 .328.201.525.604.656.402.131 1.341.197 2.817.197a43.54 43.54 0 0 0 4.227-.197c1.341-.131 2.012-.328 2.012-.59V42.327c0-.328.067-.59.269-.722a.733.733 0 0 1 .47-.197c.67 0 1.073 1.641 1.073 4.988v9.712c0 .328.2.525.67.657.403.13 1.342.197 2.818.197s2.818-.066 4.226-.197c1.342-.132 2.013-.328 2.013-.591V45.281c0-3.15-.402-5.512-1.208-6.956-.939-1.378-2.549-2.1-4.897-2.1zm29.049 4.2a8.913 8.913 0 0 0-1.14-1.575 4.717 4.717 0 0 0-1.812-1.378 14.679 14.679 0 0 0-2.75-.919c-1.141-.262-2.416-.394-3.959-.394-1.543 0-3.086.197-4.696.591-1.61.394-2.885.853-3.757 1.378-.872.46-1.341.919-1.341 1.181 0 .92.402 1.904 1.14 3.02.738 1.115 1.342 1.64 1.744 1.64.201 0 .537-.132 1.14-.46a8.772 8.772 0 0 1 2.08-.918c.805-.328 1.543-.46 2.147-.46.604 0 1.006.066 1.342.263.67.394 1.006 1.05 1.006 2.034h-1.207c-1.879 0-3.556.197-5.099.59-1.006.263-1.945.657-2.683 1.116-.738.46-1.41 1.05-1.946 1.904-.537.787-.805 1.771-.805 2.887s.201 2.034.537 2.888c.402.787.805 1.443 1.341 1.837 1.275.984 2.952 1.51 5.099 1.51 2.683 0 4.294-1.05 4.897-3.15h.269l.268 1.968c.067.263.134.394.201.46.067.065.269.196.671.262.403.066 1.208.131 2.415.131 1.275 0 2.55-.065 3.824-.197 1.275-.13 1.946-.328 1.946-.59V45.478c0-1.247-.067-2.297-.269-3.215-.2-.722-.335-1.313-.603-1.838zm-8.923 10.96c0 .196-.067.328-.268.524-.202.132-.403.197-.738.197-.738 0-1.074-.787-1.074-2.297 0-.656.202-1.246.604-1.771.403-.525.872-.788 1.476-.788v4.134zm32.604-13.06c-.872-1.444-2.482-2.1-4.897-2.1a8.3 8.3 0 0 0-2.281.328c-1.677.525-2.885 1.51-3.556 2.822h-.268l-.336-1.575c-.2-.853-1.073-1.313-2.549-1.313-1.543 0-2.952.263-4.36.722-1.41.46-2.08.985-2.08 1.444v17.325c0 .328.201.525.67.656.47.132 1.342.197 2.818.197s2.818-.065 4.227-.197c1.342-.13 2.012-.328 2.012-.59V42.197c0-.656.336-.919 1.007-.919.402 0 .738.197.872.656.067.263.134.525.201.854.067.328.134 1.05.134 2.1v11.156c0 .328.202.525.604.656.403.131 1.342.197 2.818.197s2.817-.066 4.226-.197c1.342-.131 2.013-.328 2.013-.59V45.28c0-3.215-.47-5.512-1.275-6.956z" fill="url(#b)"/></g></svg>