<svg width="112" height="89" viewBox="0 0 112 89" xmlns="http://www.w3.org/2000/svg"><title>ST0WA_logoA_100</title><g fill="#281E69" fill-rule="evenodd"><path d="M101.79 63.634c0 1.51 1.13 2.632 2.665 2.632 1.487-.001 2.538-1.006 3.02-1.47V60.54c-1.006 0-5.686-.311-5.686 3.094"/><path d="M66.502 73.929c-5.666-1.35-11.017-2.62-18.032-2.928-7.896-.344-16.915.663-27.573 3.075l-.99-4.033c1.85-.417 3.618-.784 5.326-1.115-2.18-.417-4.403-1.263-5.281-1.942.244-.675 1.354-3.443 1.354-3.443.713.313 3.745 1.78 5.944 1.78 1.33 0 2.456-.539 2.456-1.93 0-2.24-3.945-2.24-6.601-3.943-1.207-.77-2.378-2.125-2.378-4.365 0-3.52 2.78-6.301 7.127-6.301 1.889 0 5.396.821 6.543 1.499l-1.536 3.43c-.527-.208-2.626-1.065-4.844-1.065-1.531 0-2.657.542-2.657 1.854 0 2.087 3.622 1.934 6.48 3.752 1.572 1.003 2.7 2.473 2.7 4.712 0 1.973-.807 3.669-2.253 4.79 2.985-.41 5.734-.672 8.296-.816-.73-1.417-.702-3.178-.748-4.139v-9.784h-3.46v-3.603h3.46v-5.41l5.11-.78v6.19h5.42l-.81 3.593H44.95v9.987s-.079 1.312.764 1.63c1.139.426 4.08-.772 4.08-.772l.774 3.126c1.397.096 2.734.23 4.025.394-2.134-1.744-3.336-4.666-3.336-8.41 0-6.222 3.304-10.204 8.741-10.204 5.397 0 8.74 3.982 8.74 10.204 0 5.113-2.233 8.705-6.04 9.83 1.643.357 3.246.737 4.84 1.118 5.655 1.344 10.995 2.616 18.009 2.94 7.461.345 15.905-.496 25.77-2.565V68.43l-2.873 1.129c-.806-.942-.967-1.353-1.17-2.32-.803.775-2.21 2.32-5.234 2.32-3.706 0-6.04-2.32-6.04-5.953 0-6.533 7.328-6.533 10.51-6.533v-1.197c0-1.74-.322-2.86-2.858-2.86-1.659 0-4.127.912-5.185 1.301l-1.25-3.586c1.47-1.013 4.873-1.58 7.2-1.58 4.712 0 6.672 1.93 6.9 5.476V0H0v89h111.318V74.523c-22.784 4.647-33.978 1.984-44.816-.594zm8.035-24.515l2.818 13.514 2.868-13.503h4.69l2.768 13.334 3.07-13.345h4.923l-5.466 19.782h-4.985l-2.82-13.314-3.317 13.314h-4.982L69.36 49.414h5.178z"/><path d="M59.908 52.912c-2.784 0-3.307 2.745-3.307 6.345 0 3.597.484 6.346 3.307 6.346 2.821 0 3.307-2.707 3.307-6.346 0-3.6-.526-6.345-3.307-6.345"/></g></svg>