<svg version="1.1" xmlns="http://www.w3.org/2000/svg" xmlns:xlink="http://www.w3.org/1999/xlink" x="0px" y="0px" viewBox="0 0 114 28" style="enable-background:new 0 0 114 28;" xml:space="preserve">
<path class="letters" d="M99.7,28H86.1v-5.4h13.7c4.8,0,8.7-3.9,8.7-8.6c0-4.7-3.9-8.6-8.7-8.6H86.1V0h13.7c7.8,0,14.1,6.3,14.1,14
    S107.5,28,99.7,28z M56.5,28H42.9c-7.8,0-14.1-6.3-14.1-14S35.1,0,42.9,0h13.7v5.4H42.9c-4.8,0-8.7,3.9-8.7,8.6
    c0,4.7,3.9,8.6,8.7,8.6h13.7V28z M27.9,28H14.3C6.5,28,0.2,21.7,0.2,14S6.5,0,14.3,0h13.7v5.4H14.3c-4.8,0-8.7,3.9-8.7,8.6
    c0,4.7,3.9,8.6,8.7,8.6h13.7V28z M85.4,27.6H80V14c0-4.7-3.9-8.6-8.7-8.6c-4.8,0-8.7,3.9-8.7,8.6v13.6h-5.4V14c0-7.7,6.3-14,14.1-14
    c7.8,0,14.1,6.3,14.1,14V27.6z"></path>
<path class="decal" d="M64.2,16.3h14v-4.5h-14V16.3z M87.2,16.3h4.6v-4.7h-4.6V16.3z M41.5,16.3h14v-4.5h-14V16.3z"></path>
</svg>