<?xml version="1.0" encoding="utf-8"?>
<!-- Generator: Adobe Illustrator 21.1.0, SVG Export Plug-In . SVG Version: 6.00 Build 0)  -->
<svg version="1.1" id="Layer_1" xmlns="http://www.w3.org/2000/svg" xmlns:xlink="http://www.w3.org/1999/xlink" x="0px" y="0px"
	 viewBox="0 0 30 30" style="enable-background:new 0 0 30 30;" xml:space="preserve" width="30px" height="30px">
<path d="M26.3,9.5c-1.2-1-2.7-1.7-4.3-2V5.1c0-2.5-4.7-4.6-10.6-4.6c-5.9,0-10.6,2-10.6,4.6V25c0,2.5,4.7,4.5,10.6,4.5
	c5.9,0,10.6-2,10.6-4.5v-1.8c1.6-0.3,3.1-1,4.3-2c1.9-1.5,2.9-3.6,2.9-5.8C29.2,13.1,28.1,11.1,26.3,9.5z M11.5,8
	c-0.6,0-1.2,0-1.8-0.1v5.6l1.6,0.1v5.3l-5.3-0.5v-5.3l1.8,0.2V7.6C5.4,7.1,3.8,6.1,3.8,4.9c0-1.7,3.5-3,7.7-3c4.3,0,7.8,1.4,7.8,3
	C19.3,6.6,15.8,8,11.5,8z M22,20.2v-9.8c2.5,0.7,4.3,2.7,4.3,4.9C26.3,17.6,24.5,19.5,22,20.2z"/>
</svg>
